<?xml version="1.0" encoding="UTF-8"?>
<svg version="1.1" xmlns="http://www.w3.org/2000/svg" width="512" height="512">
<path d="M0 0 C0.97055328 0.00215515 1.94110657 0.0043103 2.94107056 0.00653076 C17.26930898 0.0575666 31.29685782 0.40491562 45.375 3.3125 C46.35807129 3.51117676 47.34114258 3.70985352 48.35400391 3.91455078 C103.68077233 15.42120849 156.40559699 45.32483558 191.375 90.3125 C192.16261719 91.29476562 192.95023437 92.27703125 193.76171875 93.2890625 C211.11398215 115.09431877 224.53574682 139.89210034 233.375 166.3125 C233.65424316 167.14587891 233.93348633 167.97925781 234.22119141 168.83789062 C238.74052381 182.57410753 242.49352373 196.74339823 243.88671875 211.171875 C243.96180664 211.94378174 244.03689453 212.71568848 244.11425781 213.51098633 C244.24204752 214.95428613 244.34851517 216.39971057 244.42871094 217.84643555 C244.8510737 222.9896621 246.54232967 225.00143569 250.375 228.3125 C255.47645718 234.07792124 257.26024482 238.83925181 256.828125 246.578125 C256.1980872 250.38007722 254.98914241 252.49197793 252.375 255.3125 C250.87839844 256.20388672 250.87839844 256.20388672 249.3515625 257.11328125 C245.20918821 260.54923843 245.27766935 265.0630915 244.73144531 270.14819336 C244.61381836 271.43991455 244.49619141 272.73163574 244.375 274.0625 C244.07683052 276.79017253 243.75223553 279.51433744 243.421875 282.23828125 C243.29918243 283.26514793 243.29918243 283.26514793 243.17401123 284.3127594 C235.96389351 342.56827639 201.53333862 400.30516531 155.375 436.3125 C154.39144531 437.10140625 153.40789062 437.8903125 152.39453125 438.703125 C130.58779176 456.05165881 105.7946885 469.47348474 79.375 478.3125 C78.54162109 478.59174316 77.70824219 478.87098633 76.84960938 479.15869141 C67.74592144 482.1538823 58.57733791 484.64004123 49.1875 486.5625 C48.45329834 486.71364258 47.71909668 486.86478516 46.96264648 487.02050781 C31.58342501 489.97017558 16.37298474 490.68751267 0.75 490.625 C-0.22055328 490.62284485 -1.19110657 490.6206897 -2.19107056 490.61846924 C-16.52275971 490.56742111 -30.5419071 490.20725602 -44.625 487.3125 C-46.08365479 487.02246094 -46.08365479 487.02246094 -47.57177734 486.7265625 C-102.89595475 475.41917661 -155.66156918 445.1326427 -190.625 400.3125 C-191.41390625 399.32894531 -192.2028125 398.34539062 -193.015625 397.33203125 C-211.12105231 374.57389267 -224.41321826 348.85215147 -233.625 321.3125 C-233.88748535 320.52939453 -234.1499707 319.74628906 -234.42041016 318.93945312 C-237.07809094 310.84634023 -239.09223636 302.65268523 -240.8125 294.3125 C-241.0451355 293.19343262 -241.0451355 293.19343262 -241.2824707 292.05175781 C-241.7833379 289.47836494 -242.21496288 286.90201371 -242.625 284.3125 C-242.81247803 283.13776123 -242.99995605 281.96302246 -243.19311523 280.75268555 C-244.41573654 272.32662621 -244.73553085 264.09307988 -244.57421875 255.58203125 C-244.55624741 254.56728729 -244.53827606 253.55254333 -244.51976013 252.50704956 C-244.43750573 248.30775877 -244.34489778 244.10972782 -244.20678711 239.91186523 C-244.11006266 236.80171075 -244.05754886 233.69329529 -244.01171875 230.58203125 C-243.96931564 229.63826126 -243.92691254 228.69449127 -243.88322449 227.72212219 C-243.79818168 222.71078597 -243.79818168 222.71078597 -246.13980103 218.45346069 C-247.96396012 216.85430343 -247.96396012 216.85430343 -249.87727356 215.56913757 C-252.89216695 213.40139082 -254.54464622 210.78369587 -255.625 207.3125 C-256.34756769 201.77778049 -256.42869797 197.04848762 -254.0625 191.9375 C-246.72692743 184.03765262 -246.72692743 184.03765262 -242.75463867 182.66723633 C-239.21512856 181.35312486 -237.15310977 180.30907799 -235.34521484 176.89746094 C-234.24341186 173.70833866 -233.32205556 170.50607754 -232.4375 167.25 C-219.20578816 123.57444971 -190.74001561 82.38509616 -154.625 54.3125 C-153.15160156 53.13107422 -153.15160156 53.13107422 -151.6484375 51.92578125 C-128.89189174 33.81649736 -103.16529665 20.52449754 -75.625 11.3125 C-74.84189453 11.05001465 -74.05878906 10.7875293 -73.25195312 10.51708984 C-65.15884023 7.85940906 -56.96518523 5.84526364 -48.625 4.125 C-47.87895508 3.96990967 -47.13291016 3.81481934 -46.36425781 3.6550293 C-30.93627433 0.65223446 -15.67921691 -0.06273767 0 0 Z " fill="#65B0CF" transform="translate(255.625,10.6875)"/>
<path d="M0 0 C20.79371621 7.4683643 37.39806584 3.3099459 58.36010742 -2.29541016 C70.8992009 -5.17394409 83.7278307 -1.25965059 94.38745117 5.21972656 C95.31557617 5.90035156 96.24370117 6.58097656 97.19995117 7.28222656 C98.14870117 7.94222656 99.09745117 8.60222656 100.07495117 9.28222656 C107.72931323 16.01485916 111.5031212 24.19778706 114.09057617 33.80957031 C114.46971161 35.17782204 114.46971161 35.17782204 114.85650635 36.57371521 C117.45045736 46.016705 119.87765571 55.50345109 122.24243164 65.00610352 C122.95784668 67.87640397 123.6821592 70.74436733 124.40698242 73.61230469 C128.15099368 88.51166931 130.52313351 102.22928163 130.40576172 117.61108398 C130.38735562 120.10768755 130.38525378 122.6039211 130.38549805 125.10058594 C130.38058616 126.70931307 130.37475929 128.31803772 130.36791992 129.92675781 C130.3668071 130.662314 130.36569427 131.39787018 130.36454773 132.15571594 C130.32391292 136.62378103 129.92493299 140.87195065 129.19995117 145.28222656 C130.18866211 145.44335938 131.17737305 145.60449219 132.19604492 145.77050781 C143.4223299 147.78760754 154.14447671 151.01161701 164.94995117 154.59472656 C165.98730911 154.9339061 165.98730911 154.9339061 167.04562378 155.27993774 C180.65121328 159.7485596 196.20769983 164.88395517 207.19995117 174.28222656 C208.49291992 176.99316406 208.49291992 176.99316406 209.19995117 179.28222656 C174.59489056 203.03079757 119.12094361 198.66316365 78.67248535 198.47784424 C75.71989111 198.46706006 72.76734306 198.4674244 69.81473255 198.46784115 C42.20111442 198.46699455 14.53894863 198.19872743 -12.98754883 195.84472656 C-14.62957806 195.71140959 -16.27166948 195.57885654 -17.91381836 195.44702148 C-24.96587429 194.87629635 -32.01441524 194.26767841 -39.06176758 193.64160156 C-40.64211792 193.50129517 -40.64211792 193.50129517 -42.25439453 193.3581543 C-44.10886548 193.19089072 -45.9629348 193.01906213 -47.81640625 192.84106445 C-51.77735111 192.47357042 -55.73809122 192.18063599 -59.71411133 192.04394531 C-60.78459717 192.0027356 -60.78459717 192.0027356 -61.87670898 191.96069336 C-64.40949246 192.38410994 -65.26051699 193.26251445 -66.80004883 195.28222656 C-67.31418342 198.73427309 -67.34292102 200.51105778 -65.31152344 203.39672852 C-61.81860206 206.01905104 -58.4009291 206.18056679 -54.17895508 206.51269531 C-53.33136124 206.59317612 -52.4837674 206.67365692 -51.61048889 206.75657654 C-48.86247045 207.01233128 -46.11299529 207.2417007 -43.36254883 207.46972656 C-41.47036523 207.63909257 -39.57827497 207.80950445 -37.6862793 207.98095703 C-27.93398383 208.84812334 -18.17432859 209.6712844 -8.3853302 209.96932983 C-4.03752262 210.11268856 0.28210976 210.35096699 4.61572266 210.734375 C24.47563366 212.48205454 44.28895458 212.71194324 64.21173096 212.88311768 C68.73847081 212.9239047 73.26509961 212.97464587 77.79174805 213.02441406 C86.59440505 213.11979552 95.39711958 213.20461578 104.19995117 213.28222656 C103.66799604 216.84706119 103.0395245 220.12325518 101.7355957 223.484375 C101.43588867 224.26544617 101.13618164 225.04651733 100.82739258 225.85125732 C100.49916504 226.68957092 100.1709375 227.52788452 99.83276367 228.39160156 C99.48632812 229.29033997 99.13989258 230.18907837 98.78295898 231.11505127 C97.63534066 234.08942208 96.48003388 237.06074749 95.32495117 240.03222656 C94.09963518 243.20326703 92.87641997 246.37511293 91.65328979 249.54699707 C90.80214566 251.7538692 89.95034845 253.96048954 89.09793091 256.16687012 C84.86567542 267.12669247 80.69646305 278.11008426 76.5335083 289.09637451 C75.32976667 292.26953254 74.12267757 295.44139518 72.91430664 298.61279297 C68.13117734 311.1624964 68.13117734 311.1624964 63.4324646 323.74395752 C62.35844644 326.6461943 61.27206409 329.54370174 60.18328857 332.44042969 C59.48127527 334.32321594 58.79745142 336.21275422 58.11450195 338.10253906 C54.6000562 347.41332827 49.94880501 354.31128688 41.19995117 359.28222656 C34.4698653 361.52558852 27.26024022 361.19812286 20.82495117 358.21972656 C13.27774242 353.90703585 9.7352076 348.52958591 7.19995117 340.28222656 C6.51959144 336.90662331 6.10017147 333.51755034 5.69995117 330.09863281 C5.57917709 329.13373428 5.45840302 328.16883575 5.33396912 327.17469788 C5.07862714 325.12305565 4.82783142 323.0708432 4.58126831 321.01812744 C4.19677585 317.81830084 3.79955426 314.62026795 3.39941406 311.42236328 C2.31322811 302.69588214 1.25531231 293.96777358 0.32104492 285.22363281 C-2.47000897 258.01557082 -2.47000897 258.01557082 -16.14379883 235.11816406 C-23.68180587 229.95413976 -30.78329546 229.40254331 -39.80004883 230.28222656 C-46.32284304 232.62477805 -50.8261915 237.59603244 -54.03833008 243.59472656 C-60.90599211 258.56325309 -63.11629668 275.16767431 -65.08129883 291.36425781 C-65.17320999 292.11990335 -65.26512115 292.8755489 -65.3598175 293.65409279 C-66.21690423 300.74136879 -67.04196489 307.83228822 -67.85229492 314.92504883 C-68.30170332 318.84820825 -68.77049687 322.76867646 -69.25071716 326.68817711 C-69.42730297 328.16273366 -69.59641007 329.63820804 -69.75746155 331.11454201 C-70.81068327 340.76544318 -72.26973857 348.35386769 -79.67504883 355.09472656 C-86.9229026 360.16822421 -92.97930591 361.45083454 -101.80004883 360.28222656 C-109.48773291 357.95327879 -113.54418565 353.91416569 -117.80004883 347.28222656 C-119.59267714 343.63505965 -121.04205075 339.88595905 -122.47973633 336.08691406 C-122.90084686 335.00425262 -123.3219574 333.92159119 -123.75582886 332.80612183 C-125.11540021 329.30248248 -126.45750986 325.7924228 -127.80004883 322.28222656 C-128.72229088 319.90185498 -129.64579984 317.52197387 -130.57055664 315.14257812 C-132.90620711 309.12231758 -135.22128946 303.09443327 -137.52661133 297.0625 C-138.71521183 293.95570414 -139.90849577 290.85078881 -141.10399055 287.74664497 C-142.25965522 284.74194994 -143.40830935 281.73457694 -144.55786133 278.72753906 C-144.98584015 277.61839142 -145.41381897 276.50924377 -145.85476685 275.3664856 C-146.43700516 273.83615189 -146.43700516 273.83615189 -147.03100586 272.27490234 C-147.5453569 270.93239914 -147.5453569 270.93239914 -148.07009888 269.56277466 C-148.80004883 267.28222656 -148.80004883 267.28222656 -148.80004883 264.28222656 C-147.63086914 264.24484375 -146.46168945 264.20746094 -145.25708008 264.16894531 C-143.70887208 264.10326376 -142.16069641 264.03681718 -140.61254883 263.96972656 C-139.84362305 263.94716797 -139.07469727 263.92460937 -138.2824707 263.90136719 C-133.71345658 263.68566266 -130.46187251 263.29581781 -126.80004883 260.28222656 C-124.09657523 256.45454807 -124.45013359 252.08037163 -124.38598633 247.57910156 C-124.36662018 246.74131165 -124.34725403 245.90352173 -124.32730103 245.04034424 C-124.26764158 242.37107443 -124.2211747 239.70176117 -124.17504883 237.03222656 C-124.13685647 235.21970802 -124.09780401 233.40720738 -124.05786133 231.59472656 C-123.96195131 227.15737242 -123.87787003 222.71993331 -123.80004883 218.28222656 C-122.6751001 218.26764404 -121.55015137 218.25306152 -120.39111328 218.23803711 C-116.20687495 218.17994902 -112.02316886 218.10271693 -107.83935547 218.01977539 C-106.03052424 217.98657543 -104.22159065 217.95852816 -102.41259766 217.93579102 C-99.8082325 217.90215398 -97.20480123 217.84983461 -94.60083008 217.79394531 C-93.79543289 217.78755539 -92.99003571 217.78116547 -92.16023254 217.77458191 C-87.60073995 217.65589434 -84.45104221 217.30517519 -80.80004883 214.28222656 C-79.09275671 211.45394297 -78.54635241 209.33755035 -78.52539062 206.05200195 C-78.51585861 205.22757095 -78.5063266 204.40313995 -78.49650574 203.5537262 C-78.49741714 202.67135788 -78.49832855 201.78898956 -78.49926758 200.87988281 C-78.49283989 199.50780922 -78.49283989 199.50780922 -78.48628235 198.10801697 C-78.48054559 196.17561673 -78.48003396 194.24319489 -78.484375 192.31079102 C-78.48753373 189.35883639 -78.46407204 186.40788537 -78.4387207 183.45605469 C-78.43644748 181.57649866 -78.43574432 179.69693994 -78.43676758 177.81738281 C-78.42755783 176.93703873 -78.41834808 176.05669464 -78.40885925 175.14967346 C-78.44450991 170.41297739 -78.5944822 167.04780455 -81.80004883 163.28222656 C-85.44787859 160.42660225 -90.07070093 160.9313309 -94.50317383 160.86816406 C-95.34096375 160.84879791 -96.17875366 160.82943176 -97.04193115 160.80947876 C-99.71120096 160.74981932 -102.38051422 160.70335243 -105.05004883 160.65722656 C-106.86256737 160.61903421 -108.67506801 160.57998174 -110.48754883 160.54003906 C-114.92490297 160.44412904 -119.36234208 160.36004777 -123.80004883 160.28222656 C-123.81463135 159.15727783 -123.82921387 158.0323291 -123.84423828 156.87329102 C-123.90232637 152.68905269 -123.97955847 148.5053466 -124.0625 144.3215332 C-124.09569996 142.51270198 -124.12374724 140.70376839 -124.14648438 138.89477539 C-124.18012141 136.29041023 -124.23244078 133.68697896 -124.28833008 131.08300781 C-124.29472 130.27761063 -124.30110992 129.47221344 -124.30769348 128.64241028 C-124.42638105 124.08291769 -124.7771002 120.93321994 -127.80004883 117.28222656 C-130.63195927 115.57122108 -132.73980986 115.03068759 -136.03027344 115.0234375 C-137.26691994 115.01398102 -137.26691994 115.01398102 -138.52854919 115.0043335 C-139.85210167 115.01040619 -139.85210167 115.01040619 -141.20239258 115.01660156 C-142.11710831 115.01468811 -143.03182404 115.01277466 -143.97425842 115.01080322 C-145.90666988 115.0094437 -147.83909053 115.01312391 -149.77148438 115.02148438 C-152.72327294 115.03217486 -155.6744512 115.02158753 -158.6262207 115.00878906 C-160.50577933 115.01011094 -162.38533759 115.01267392 -164.26489258 115.01660156 C-165.14523666 115.0125531 -166.02558075 115.00850464 -166.93260193 115.0043335 C-173.14774724 114.97561029 -173.14774724 114.97561029 -178.80004883 117.28222656 C-181.41889213 121.50567043 -181.14492829 126.2592852 -181.21411133 131.08300781 C-181.23347748 131.91938278 -181.25284363 132.75575775 -181.27279663 133.61747742 C-181.33235074 136.27645826 -181.37888057 138.93548296 -181.42504883 141.59472656 C-181.46325089 143.40268766 -181.50230391 145.21063098 -181.54223633 147.01855469 C-181.63803228 151.43963355 -181.72215213 155.86079757 -181.80004883 160.28222656 C-184.11004883 160.28222656 -186.42004883 160.28222656 -188.80004883 160.28222656 C-192.81367496 146.54627307 -194.9454512 133.35488059 -195.11254883 119.03222656 C-195.13027344 118.15308594 -195.14799805 117.27394531 -195.16625977 116.36816406 C-195.146497 97.97561451 -190.01568873 79.98470873 -185.49462891 62.30053711 C-184.64908428 58.99122566 -183.82430528 55.67711634 -183.00467205 52.36130619 C-182.20321765 49.1350504 -181.38128274 45.91409782 -180.56176758 42.69238281 C-180.27403976 41.52336929 -179.98631195 40.35435577 -179.68986511 39.1499176 C-175.81899823 24.22282799 -169.300002 11.59004443 -155.86254883 3.34472656 C-139.53065651 -5.37658621 -124.04627252 -3.39565675 -106.80004883 1.28222656 C-104.9447235 1.86186415 -103.09036307 2.44461173 -101.23754883 3.03222656 C-89.16115555 6.38987201 -77.35634825 4.55774753 -65.80004883 0.28222656 C-63.3064988 -0.51151609 -60.8049531 -1.26067667 -58.29223633 -1.99121094 C-56.58096324 -2.49010873 -54.87790644 -3.0178138 -53.18286133 -3.56933594 C-35.85416785 -8.70554148 -16.73111573 -6.02167021 0 0 Z " fill="#EBEBF0" transform="translate(287.800048828125,75.7177734375)"/>
<path d="M0 0 C0.91092911 -0.00524185 1.82185822 -0.0104837 2.76039124 -0.0158844 C4.68261701 -0.02229391 6.60488207 -0.02098148 8.52709961 -0.01245117 C11.45953608 -0.00394431 14.39002157 -0.03271196 17.32226562 -0.06445312 C19.19400984 -0.06606545 21.06575748 -0.06548702 22.9375 -0.0625 C23.80954575 -0.07373398 24.68159149 -0.08496796 25.58006287 -0.09654236 C31.02193948 -0.03460954 34.28802392 0.70138977 38.53515625 4.43359375 C41.446637 8.07842131 40.78711692 12.68853889 40.73046875 17.13671875 C40.72763885 17.97450867 40.72480896 18.81229858 40.72189331 19.67547607 C40.71071974 22.34499538 40.68562046 25.01417625 40.66015625 27.68359375 C40.65012279 29.4960889 40.64099758 31.30858931 40.6328125 33.12109375 C40.61078965 37.55872368 40.57627929 41.99610138 40.53515625 46.43359375 C41.65486816 46.41264648 42.77458008 46.39169922 43.92822266 46.37011719 C48.09899002 46.29748949 52.26970193 46.25171164 56.44091797 46.21386719 C58.24309706 46.19380342 60.04521146 46.16654562 61.84716797 46.13183594 C64.44384761 46.08308546 67.03966354 46.06057293 69.63671875 46.04296875 C70.8370726 46.01200104 70.8370726 46.01200104 72.06167603 45.98040771 C77.33959554 45.9783105 80.4008919 46.85176959 84.53515625 50.43359375 C86.24965895 53.24864102 86.79094357 55.37086795 86.82568359 58.64794922 C86.8384433 59.46915253 86.851203 60.29035583 86.86434937 61.13644409 C86.86657501 62.01567535 86.86880066 62.89490662 86.87109375 63.80078125 C86.88107895 65.16929733 86.88107895 65.16929733 86.89126587 66.56546021 C86.90138075 68.49365221 86.90608325 70.42187915 86.90576172 72.35009766 C86.91013053 75.29128083 86.94644992 78.23095764 86.984375 81.171875 C86.99024438 83.04817197 86.99421296 84.92447604 86.99609375 86.80078125 C87.0176503 88.11355545 87.0176503 88.11355545 87.03964233 89.45285034 C86.99906149 94.9102768 86.28374519 98.17574388 82.53515625 102.43359375 C78.89032869 105.3450745 74.28021111 104.68555442 69.83203125 104.62890625 C68.99424133 104.62607635 68.15645142 104.62324646 67.29327393 104.62033081 C64.62375462 104.60915724 61.95457375 104.58405796 59.28515625 104.55859375 C57.4726611 104.54856029 55.66016069 104.53943508 53.84765625 104.53125 C49.41002632 104.50922715 44.97264862 104.47471679 40.53515625 104.43359375 C40.56657715 106.11316162 40.56657715 106.11316162 40.59863281 107.82666016 C40.67126051 111.99742752 40.71703836 116.16813943 40.75488281 120.33935547 C40.77494658 122.14153456 40.80220438 123.94364896 40.83691406 125.74560547 C40.88566454 128.34228511 40.90817707 130.93810104 40.92578125 133.53515625 C40.94642639 134.33539215 40.96707153 135.13562805 40.98834229 135.96011353 C40.9904395 141.23803304 40.11698041 144.2993294 36.53515625 148.43359375 C33.7112743 150.1558811 31.59334819 150.68727187 28.30493164 150.70825195 C27.06828514 150.72254997 27.06828514 150.72254997 25.80665588 150.73713684 C24.92428757 150.73622543 24.04191925 150.73531403 23.1328125 150.734375 C21.76073891 150.74080269 21.76073891 150.74080269 20.36094666 150.74736023 C18.42854642 150.75309698 16.49612458 150.75360861 14.5637207 150.74926758 C11.61176607 150.74610885 8.66081506 150.76957054 5.70898438 150.79492188 C3.82942835 150.7971951 1.94986963 150.79789826 0.0703125 150.796875 C-0.81003159 150.80608475 -1.69037567 150.81529449 -2.59739685 150.82478333 C-7.31795279 150.78925414 -10.77251123 150.70355135 -14.46484375 147.43359375 C-17.75782257 142.57903769 -17.8701477 138.40091434 -17.7578125 132.75390625 C-17.75356766 131.94114227 -17.74932281 131.1283783 -17.74494934 130.29098511 C-17.72825179 127.71317416 -17.69061737 125.13616555 -17.65234375 122.55859375 C-17.63728533 120.80339676 -17.62359895 119.04818744 -17.61132812 117.29296875 C-17.57837767 113.00620462 -17.52665828 108.72003489 -17.46484375 104.43359375 C-18.58979248 104.4493042 -19.71474121 104.46501465 -20.8737793 104.48120117 C-25.0576254 104.53560591 -29.24144037 104.56998211 -33.42553711 104.59838867 C-35.23450992 104.6134513 -37.04344635 104.63390552 -38.85229492 104.65991211 C-41.4563089 104.69640695 -44.05983895 104.71334532 -46.6640625 104.7265625 C-47.46945969 104.74204636 -48.27485687 104.75753021 -49.10466003 104.77348328 C-53.68541335 104.77484828 -56.85804545 104.56662643 -60.46484375 101.43359375 C-63.8925973 96.4455148 -63.90493863 91.88668572 -63.86328125 86.0546875 C-63.86615143 85.16499771 -63.86902161 84.27530792 -63.87197876 83.35865784 C-63.87401289 81.48527385 -63.86852872 79.6118683 -63.85595703 77.73852539 C-63.83987487 74.87663212 -63.85583747 72.01614691 -63.875 69.15429688 C-63.87301782 67.32942398 -63.86917468 65.50455196 -63.86328125 63.6796875 C-63.86935394 62.8274913 -63.87542664 61.9752951 -63.88168335 61.09727478 C-63.8264665 56.41957244 -63.6137533 53.14975428 -60.46484375 49.43359375 C-56.1437944 45.80647876 -52.03303265 46.03740591 -46.6640625 46.140625 C-45.82768753 46.14486984 -44.99131256 46.14911469 -44.1295929 46.15348816 C-41.4701761 46.17022011 -38.81152975 46.20786149 -36.15234375 46.24609375 C-34.34441202 46.26114771 -32.53646836 46.27483487 -30.72851562 46.28710938 C-26.30699686 46.32010559 -21.88605073 46.37184947 -17.46484375 46.43359375 C-17.4805542 45.30864502 -17.49626465 44.18369629 -17.51245117 43.0246582 C-17.56685591 38.8408121 -17.60123211 34.65699713 -17.62963867 30.47290039 C-17.6447013 28.66392758 -17.66515552 26.85499115 -17.69116211 25.04614258 C-17.72765695 22.4421286 -17.74459532 19.83859855 -17.7578125 17.234375 C-17.77329636 16.42897781 -17.78878021 15.62358063 -17.80473328 14.79377747 C-17.80610398 10.19389995 -17.54352068 7.10127868 -14.46484375 3.43359375 C-10.05788173 -0.32040896 -5.51176329 -0.01851173 0 0 Z " fill="#5766CE" transform="translate(123.46484375,189.56640625)"/>
<path d="M0 0 C2.63442476 0.02373135 5.26783775 0.02050961 7.90234375 0.01391602 C21.5119601 0.03551745 35.00404298 0.81151967 48.19140625 4.46118164 C48.97273926 4.67436035 49.75407227 4.88753906 50.55908203 5.10717773 C97.55630684 18.41390138 138.43375986 48.38577578 162.62890625 91.14868164 C164.12223257 93.86011038 165.57305681 96.59132677 167.00390625 99.33618164 C167.35195313 99.99956543 167.7 100.66294922 168.05859375 101.34643555 C177.8736586 120.32622495 183.02151933 140.25867467 186.00390625 161.33618164 C186.10920654 162.05966797 186.21450684 162.7831543 186.32299805 163.52856445 C186.91121435 167.82393538 187.11153663 172.00366515 187.06640625 176.33618164 C187.05738281 177.47055664 187.04835938 178.60493164 187.0390625 179.77368164 C187.02166016 181.04211914 187.02166016 181.04211914 187.00390625 182.33618164 C181.80331084 180.80676229 176.62374229 179.22860241 171.47265625 177.53930664 C156.44382927 172.6138822 141.31276835 168.30285036 126.00390625 164.33618164 C125.99456055 163.56242188 125.98521484 162.78866211 125.97558594 161.99145508 C125.92064726 158.35580757 125.83726355 154.72128467 125.75390625 151.08618164 C125.73972656 149.8705957 125.72554687 148.65500977 125.7109375 147.40258789 C125.23809448 129.15084725 120.21886922 111.49058751 115.79492188 93.86889648 C114.99652082 90.68169919 114.21086546 87.49152581 113.42578125 84.30102539 C112.91091814 82.2370331 112.39531987 80.17322403 111.87890625 78.10961914 C111.64961426 77.17403168 111.42032227 76.23844421 111.18408203 75.27450562 C107.53321822 60.87137502 102.00617995 47.5269427 89.00390625 39.33618164 C86.3937223 37.84598685 83.75684274 36.5394519 81.00390625 35.33618164 C80.15828125 34.94430664 79.31265625 34.55243164 78.44140625 34.14868164 C75.29317758 33.09927208 72.29348941 32.60484088 69.00390625 32.33618164 C67.76833984 32.20276367 67.76833984 32.20276367 66.5078125 32.06665039 C56.37777891 31.4881757 47.08940546 34.31852965 37.3828125 36.92602539 C22.43959417 40.91613264 10.19447626 40.23542156 -4.19116211 35.05273438 C-28.7714197 26.23348617 -52.02168409 28.15243684 -76.140625 37.28540039 C-81.25209713 39.16636619 -85.7392419 39.52841637 -91.18359375 39.52368164 C-92.31945923 39.52464844 -92.31945923 39.52464844 -93.47827148 39.52563477 C-98.90714595 39.47438051 -103.76183165 38.85887607 -108.99609375 37.33618164 C-108.43148437 37.07836914 -107.866875 36.82055664 -107.28515625 36.55493164 C-104.74636704 35.20322135 -102.6452109 33.59772001 -100.37109375 31.83618164 C-83.90613884 19.79822785 -65.25151705 12.05077613 -45.87109375 6.02368164 C-44.78272217 5.67805176 -44.78272217 5.67805176 -43.67236328 5.32543945 C-29.29710276 1.0700374 -14.91257244 -0.14306958 0 0 Z " fill="#7FBED6" transform="translate(291.99609375,41.663818359375)"/>
<path d="M0 0 C10.95021416 8.98535718 14.11347597 24.01266019 15.4375 37.4375 C17.8491814 66.0488112 11.49931841 95.84174487 -5.25 119.4375 C-5.64574219 120.02917969 -6.04148437 120.62085938 -6.44921875 121.23046875 C-10.27987716 126.45898146 -16.27302729 130.49821499 -22.58203125 131.98828125 C-28.70085552 132.36334053 -33.38601937 129.98293166 -38.25 126.4375 C-42.80980418 121.99461387 -44.31061178 116.67217503 -44.48046875 110.38671875 C-44.47654071 108.96607906 -44.46210183 107.54543208 -44.4375 106.125 C-44.43685547 105.42955078 -44.43621094 104.73410156 -44.43554688 104.01757812 C-44.40433022 100.23342556 -44.17737172 96.52999685 -43.75390625 92.76953125 C-41.39482909 70.60017293 -43.36777996 49.25866257 -49.6237793 27.97802734 C-51.42770284 21.65566538 -52.38411234 16.13101681 -49.75 9.875 C-44.29831615 1.52591775 -36.28834192 -2.91802759 -26.7421875 -5.1484375 C-17.25814719 -6.7241558 -8.06722426 -5.41393567 0 0 Z " fill="#FEF4F4" transform="translate(370.25,121.5625)"/>
<path d="M0 0 C0 49.5 0 99 0 150 C-21 150 -21 150 -26 147 C-29.29297882 142.14544394 -29.40530395 137.96732059 -29.29296875 132.3203125 C-29.28872391 131.50754852 -29.28447906 130.69478455 -29.28010559 129.85739136 C-29.26340804 127.27958041 -29.22577362 124.7025718 -29.1875 122.125 C-29.17244158 120.36980301 -29.1587552 118.61459369 -29.14648438 116.859375 C-29.11353392 112.57261087 -29.06181453 108.28644114 -29 104 C-30.12494873 104.01571045 -31.24989746 104.0314209 -32.40893555 104.04760742 C-36.59278165 104.10201216 -40.77659662 104.13638836 -44.96069336 104.16479492 C-46.76966617 104.17985755 -48.5786026 104.20031177 -50.38745117 104.22631836 C-52.99146515 104.2628132 -55.5949952 104.27975157 -58.19921875 104.29296875 C-59.00461594 104.30845261 -59.81001312 104.32393646 -60.63981628 104.33988953 C-65.2205696 104.34125453 -68.3932017 104.13303268 -72 101 C-75.42775355 96.01192105 -75.44009488 91.45309197 -75.3984375 85.62109375 C-75.40130768 84.73140396 -75.40417786 83.84171417 -75.40713501 82.92506409 C-75.40916914 81.0516801 -75.40368497 79.17827455 -75.39111328 77.30493164 C-75.37503112 74.44303837 -75.39099372 71.58255316 -75.41015625 68.72070312 C-75.40817407 66.89583023 -75.40433093 65.07095821 -75.3984375 63.24609375 C-75.40451019 62.39389755 -75.41058289 61.54170135 -75.4168396 60.66368103 C-75.36162275 55.98597869 -75.14890955 52.71616053 -72 49 C-67.67895065 45.37288501 -63.5681889 45.60381216 -58.19921875 45.70703125 C-57.36284378 45.71127609 -56.52646881 45.71552094 -55.66474915 45.71989441 C-53.00533235 45.73662636 -50.346686 45.77426774 -47.6875 45.8125 C-45.87956827 45.82755396 -44.07162461 45.84124112 -42.26367188 45.85351562 C-37.84215311 45.88651184 -33.42120698 45.93825572 -29 46 C-29.01571045 44.87505127 -29.0314209 43.75010254 -29.04760742 42.59106445 C-29.10201216 38.40721835 -29.13638836 34.22340338 -29.16479492 30.03930664 C-29.17985755 28.23033383 -29.20031177 26.4213974 -29.22631836 24.61254883 C-29.2628132 22.00853485 -29.27975157 19.4050048 -29.29296875 16.80078125 C-29.30845261 15.99538406 -29.32393646 15.18998688 -29.33988953 14.36018372 C-29.34126023 9.7603062 -29.07867693 6.66768493 -26 3 C-21 0 -21 0 0 0 Z " fill="#3D4EC6" transform="translate(135,190)"/>
<path d="M0 0 C-0.59115971 4.81056217 -2.02610611 8.92303229 -4 13.3125 C-4.30832764 14.00327637 -4.61665527 14.69405273 -4.93432617 15.40576172 C-11.04040561 28.86671917 -17.99522493 41.26853149 -27 53 C-27.99 54.32644531 -27.99 54.32644531 -29 55.6796875 C-50.43576881 83.22799976 -83.35568444 108.76049877 -118 117 C-115.93468873 109.70320279 -113.44438977 102.64512889 -110.7109375 95.57421875 C-110.29459549 94.48813324 -109.87825348 93.40204773 -109.44929504 92.28305054 C-108.55673286 89.9556909 -107.66256922 87.62894492 -106.76693726 85.30276489 C-104.64437546 79.7898561 -102.53120811 74.27335173 -100.41750908 68.75704002 C-99.69727067 66.87772941 -98.97659762 64.99858589 -98.25587463 63.11946106 C-93.52569277 50.78250717 -88.85005503 38.42514285 -84.1875 26.0625 C-83.81784119 25.08276215 -83.44818237 24.10302429 -83.06732178 23.09359741 C-81.04349852 17.72958536 -79.0209996 12.36507653 -77 7 C-76.17458961 6.9348243 -76.17458961 6.9348243 -75.33250427 6.86833191 C-69.47296688 6.40447902 -63.61413826 5.93229971 -57.75561523 5.45581055 C-55.58487984 5.28027981 -53.41398573 5.1066983 -51.24291992 4.93530273 C-38.58024686 3.93415005 -25.99063633 2.74013405 -13.41148376 0.95561218 C-8.89813682 0.32397056 -4.57271025 -0.1652901 0 0 Z " fill="#7FBDD7" transform="translate(469,282)"/>
<path d="M0 0 C6.69269755 0.63588575 12.91508092 2.16599686 19.375 4 C20.45845703 4.30687744 21.54191406 4.61375488 22.65820312 4.92993164 C82.23279001 22.12314371 82.23279001 22.12314371 93 40 C95.09294386 44.18588772 94.42417949 49.4415641 94 54 C89.3601412 63.81508592 79.77958579 67.42091282 70.20703125 71.0625 C31.20788632 84.2511144 -13.60333385 83.35731122 -54.30224609 83.26074219 C-59.15709446 83.24933244 -64.01172381 83.25612956 -68.86656475 83.26763248 C-88.77714022 83.30755478 -108.48844386 83.05583257 -128.32983398 81.23199463 C-132.24577091 80.89176248 -136.16453578 80.67117199 -140.08984375 80.47265625 C-153.68174273 79.76356477 -167.25998488 78.95634854 -180.8125 77.6875 C-181.97450928 77.59412354 -183.13651855 77.50074707 -184.33374023 77.40454102 C-193.11180326 76.51189019 -193.11180326 76.51189019 -196.2265625 73.5859375 C-198 71 -198 71 -198.5625 67.9375 C-197.8465157 64.19847086 -197.09497441 63.21615452 -194 61 C-190.8277819 60.77853738 -188.081581 60.81373755 -184.9375 61.0625 C-183.53467773 61.14951172 -183.53467773 61.14951172 -182.10351562 61.23828125 C-178.73265174 61.46086528 -175.36708322 61.72605422 -172 62 C-170.97752167 62.08275177 -170.97752167 62.08275177 -169.93438721 62.16717529 C-163.1415861 62.71882149 -156.35032381 63.28749185 -149.56225586 63.89477539 C-148.47514565 63.99194603 -148.47514565 63.99194603 -147.36607361 64.09107971 C-145.39495705 64.2682228 -143.42403288 64.44750318 -141.453125 64.62695312 C-130.07168658 65.60262569 -118.70783291 66.23183423 -107.2890625 66.546875 C-106.56306477 66.56756798 -105.83706703 66.58826096 -105.08906937 66.60958099 C-88.18567215 67.08519017 -71.2845406 67.24386444 -54.375 67.25 C-53.62096138 67.25058914 -52.86692276 67.25117828 -52.09003448 67.25178528 C-27.62920877 67.2651795 -3.32464048 66.81721709 21 64 C22.01498566 63.88401459 22.01498566 63.88401459 23.05047607 63.76568604 C42.6815563 61.49868896 60.53342372 58.58104955 78 49 C75.9691497 42.32128323 70.84571107 40.19452382 65 37 C61.21130428 35.16688689 57.36128859 33.5822639 53.4375 32.0625 C52.36902832 31.64210449 51.30055664 31.22170898 50.19970703 30.78857422 C33.5197139 24.35711875 16.31031188 19.4196541 -1 15 C-0.67 10.05 -0.34 5.1 0 0 Z " fill="#3F50C6" transform="translate(418,206)"/>
<path d="M0 0 C9.49246608 4.43933376 13.49722464 11.47452062 17.26669312 20.96751404 C22.6070455 35.71641742 24.27883783 51.6451835 25.97583008 67.1340332 C26.35312678 70.5772682 26.74829221 74.01810847 27.14648438 77.45898438 C27.39814245 79.66785425 27.64883069 81.87683489 27.8984375 84.0859375 C28.07177361 85.61401283 28.07177361 85.61401283 28.24861145 87.17295837 C28.75750671 91.83596286 29.17955416 96.39021286 29.03515625 101.08984375 C3.55498147 102.38789039 -20.44964165 95.0251003 -43.96484375 86.08984375 C-44.95484375 87.07984375 -44.95484375 87.07984375 -45.96484375 88.08984375 C-39.71861288 17.49099751 -39.71861288 17.49099751 -24.83984375 3.96484375 C-17.51673538 -1.94658108 -9.05803408 -2.78066132 0 0 Z " fill="#7FBED7" transform="translate(264.96484375,305.91015625)"/>
<path d="M0 0 C0 0.66 0 1.32 0 2 C-1.90625 3.2265625 -1.90625 3.2265625 -4.5 4.625 C-18.37243926 12.80367364 -23.83146093 24.78289904 -27.76094055 39.87896729 C-29.17188474 45.54797181 -30.52737237 51.22873016 -31.85394287 56.91802979 C-32.62013458 60.18788268 -33.40553865 63.45310943 -34.18945312 66.71875 C-35.583407 72.53841165 -36.96020809 78.36189631 -38.32830811 84.18768311 C-38.91124281 86.62838117 -39.52210345 89.0590173 -40.14868164 91.48876953 C-40.84078493 94.34332343 -41.34941583 97.02256279 -41.6328125 99.9375 C-41.71660156 100.76894531 -41.80039063 101.60039062 -41.88671875 102.45703125 C-41.96535156 103.29621094 -42.04398438 104.13539063 -42.125 105 C-42.21136719 105.87011719 -42.29773438 106.74023438 -42.38671875 107.63671875 C-42.59644607 109.75729499 -42.79897842 111.87858079 -43 114 C-43.86951294 114.029729 -43.86951294 114.029729 -44.7565918 114.06005859 C-47.40065937 114.15572601 -50.0439817 114.26523453 -52.6875 114.375 C-53.59951172 114.4059375 -54.51152344 114.436875 -55.45117188 114.46875 C-62.0241738 114.60513684 -62.0241738 114.60513684 -68 117 C-70.41869481 121.47111629 -70.34300668 125.84648095 -70.4140625 130.80078125 C-70.43342865 131.63715622 -70.4527948 132.47353119 -70.4727478 133.33525085 C-70.53230192 135.9942317 -70.57883174 138.6532564 -70.625 141.3125 C-70.66320206 143.12046109 -70.70225509 144.92840442 -70.7421875 146.73632812 C-70.83798345 151.15740698 -70.92210331 155.57857101 -71 160 C-73.31 160 -75.62 160 -78 160 C-82.01362613 146.26404651 -84.14540237 133.07265403 -84.3125 118.75 C-84.33022461 117.87085938 -84.34794922 116.99171875 -84.36621094 116.0859375 C-84.34644817 97.69338795 -79.21563991 79.70248217 -74.69458008 62.01831055 C-73.84903545 58.7089991 -73.02425646 55.39488978 -72.20462322 52.07907963 C-71.40316883 48.85282384 -70.58123392 45.63187126 -69.76171875 42.41015625 C-69.47399094 41.24114273 -69.18626312 40.07212921 -68.88981628 38.86769104 C-65.0189494 23.94060143 -58.49995317 11.30781787 -45.0625 3.0625 C-30.17944828 -4.88512459 -16.03666115 -4.15124665 0 0 Z " fill="#D2D2D8" transform="translate(177,76)"/>
<path d="M0 0 C1.82270891 2.73406337 2.87380365 5.01837405 4.03125 8.06640625 C4.4245752 9.09612549 4.81790039 10.12584473 5.22314453 11.18676758 C5.64450684 12.30075928 6.06586914 13.41475098 6.5 14.5625 C7.40353347 16.93233451 8.30718255 19.30212494 9.2109375 21.671875 C9.67338867 22.88810547 10.13583984 24.10433594 10.61230469 25.35742188 C12.76768221 31.01509827 14.94748168 36.66331789 17.125 42.3125 C22.13897829 55.34223341 27.11483301 68.38635448 32.0625 81.44140625 C36.3307929 92.69271489 40.65040757 103.91728783 45.2578125 115.03515625 C45.62648438 115.93105469 45.99515625 116.82695312 46.375 117.75 C46.85066406 118.88695312 46.85066406 118.88695312 47.3359375 120.046875 C48 122 48 122 48 125 C43.6261217 130.10507376 37.92313697 133.49988339 31.2421875 134.3515625 C23.97705246 134.70459975 17.786011 133.6134307 12 129 C6.844231 123.23833506 4.03262636 116.97190302 1.3203125 109.8046875 C0.6886467 108.18069534 0.6886467 108.18069534 0.04421997 106.52389526 C-1.31535139 103.02025592 -2.65746103 99.51019624 -4 96 C-4.92224205 93.61962842 -5.84575102 91.23974731 -6.77050781 88.86035156 C-9.10615828 82.84009102 -11.42124063 76.81220671 -13.7265625 70.78027344 C-14.915163 67.67347758 -16.10844694 64.56856225 -17.30394173 61.46441841 C-18.45960639 58.45972337 -19.60826052 55.45235038 -20.7578125 52.4453125 C-21.39978073 50.78159103 -21.39978073 50.78159103 -22.05471802 49.08425903 C-22.44287689 48.06403656 -22.83103577 47.04381409 -23.23095703 45.99267578 C-23.57385773 45.09767365 -23.91675842 44.20267151 -24.27005005 43.2805481 C-25 41 -25 41 -25 38 C-23.24623047 37.94392578 -23.24623047 37.94392578 -21.45703125 37.88671875 C-19.90882325 37.8210372 -18.36064758 37.75459061 -16.8125 37.6875 C-16.04357422 37.66494141 -15.27464844 37.64238281 -14.48242188 37.61914062 C-9.91340775 37.4034361 -6.66182369 37.01359124 -3 34 C-0.6673424 30.46618627 -0.6918124 27.21128776 -0.5859375 23.046875 C-0.56657135 22.38665344 -0.5472052 21.72643188 -0.5272522 21.04620361 C-0.46770651 18.94759847 -0.42117278 16.84893772 -0.375 14.75 C-0.33679706 13.3228934 -0.29774398 11.89580928 -0.2578125 10.46875 C-0.1620267 6.97937309 -0.07790358 3.48982714 0 0 Z " fill="#D2D3D8" transform="translate(164,302)"/>
<path d="M0 0 C41.99524557 -1.10693064 41.99524557 -1.10693064 53 9 C67.92358132 25.33715036 68.1927304 51.43570217 70.21875 72.25390625 C70.95969304 79.7723556 71.80900616 87.27311468 72.74633789 94.76934814 C72.99363239 96.76121132 73.23035555 98.75437798 73.46679688 100.74755859 C74.53293773 109.14950061 75.94599611 116.32366978 80.6875 123.5 C81.12449219 124.1703125 81.56148438 124.840625 82.01171875 125.53125 C82.33785156 126.0159375 82.66398437 126.500625 83 127 C75.87154924 131.91071052 70.58626902 132.9098726 62 132 C55.26668632 129.90581736 49.60661047 126.145844 46 120 C43.426618 113.93831216 42.26326301 108.33664847 41.5 101.81640625 C41.37922592 100.85150772 41.25845184 99.88660919 41.13401794 98.89247131 C40.87867597 96.84082909 40.62788024 94.78861663 40.38131714 92.73590088 C39.99682467 89.53607427 39.59960309 86.33804139 39.19946289 83.14013672 C38.11327694 74.41365558 37.05536114 65.68554702 36.12109375 56.94140625 C34.34875883 40.39473123 31.96943173 19.65360842 20.0078125 6.87109375 C14.07334447 2.36046329 7.26029188 1.65084533 0 1 C0 0.67 0 0.34 0 0 Z " fill="#D2D3D8" transform="translate(252,304)"/>
<path d="M0 0 C0.33 0.66 0.66 1.32 1 2 C3.4999181 2.55238089 5.97839644 3.00606197 8.5 3.4375 C18.17570823 5.28738045 27.41978213 8.21133763 36.75 11.3125 C37.4416626 11.53880096 38.1333252 11.76510193 38.84594727 11.9982605 C52.45161602 16.46657183 68.00770949 21.60169512 79 31 C80.29296875 33.7109375 80.29296875 33.7109375 81 36 C56.69459487 52.68017999 19.29428108 54.40399509 -9.3125 54.0625 C-10.44075195 54.05573242 -10.44075195 54.05573242 -11.59179688 54.04882812 C-13.39456815 54.03734551 -15.19729686 54.01943033 -17 54 C-14.42824648 44.8198331 -11.06343207 35.97900919 -7.671875 27.07617188 C-4.35015538 18.2466009 -1.26854695 9.38724744 0 0 Z " fill="#7EBDD6" transform="translate(416,219)"/>
<path d="M0 0 C-0.33 4.95 -0.66 9.9 -1 15 C-2.35867187 15.09796875 -3.71734375 15.1959375 -5.1171875 15.296875 C-42.40545646 17.9037715 -42.40545646 17.9037715 -77 31 C-77.44844853 35.12612615 -77.44844853 35.12612615 -74.5 37.75 C-68.98778699 42.19133318 -62.38855232 44.98894819 -56.03955078 48.02441406 C-53.89698067 49.04927762 -51.75563794 50.07568794 -49.62109375 51.1171875 C-48.65127563 51.58680908 -48.65127563 51.58680908 -47.66186523 52.06591797 C-46 53 -46 53 -44 55 C-43.37881318 58.99334387 -43.70433464 60.5657415 -46 63.9375 C-49.38901844 66.26745018 -50.78652038 66.17312316 -54.74365234 65.55004883 C-58.85311687 64.54825013 -62.53502174 62.74442139 -66.3125 60.875 C-67.56099731 60.26603882 -67.56099731 60.26603882 -68.8347168 59.64477539 C-79.25413414 54.48525268 -88.60821163 49.78357675 -94 39 C-94.49756886 33.55121309 -94.76085647 28.64344998 -92.4375 23.625 C-86.52578863 17.2585416 -81.29243595 13.73553838 -73 11 C-71.80761719 10.59910156 -70.61523438 10.19820312 -69.38671875 9.78515625 C-47.23381937 2.65680195 -23.23627069 -0.49970475 0 0 Z " fill="#232F7B" transform="translate(94,179)"/>
<path d="M0 0 C6.69269755 0.63588575 12.91508092 2.16599686 19.375 4 C21.00018555 4.46031616 21.00018555 4.46031616 22.65820312 4.92993164 C80.91011541 21.74142013 80.91011541 21.74142013 91.984375 38.06640625 C93.35147877 40.6691615 93.85383247 43.07664947 94 46 C93.319375 45.319375 92.63875 44.63875 91.9375 43.9375 C89.07329173 41.65162601 89.07329173 41.65162601 85.3125 42.0625 C81.74005552 42.68624135 81.74005552 42.68624135 80 46 C76.78587533 44.48859337 73.92278499 42.65644625 70.97265625 40.68359375 C65.35022482 37.08520039 59.64998896 34.46872455 53.4375 32.0625 C52.36902832 31.64210449 51.30055664 31.22170898 50.19970703 30.78857422 C33.5197139 24.35711875 16.31031188 19.4196541 -1 15 C-0.67 10.05 -0.34 5.1 0 0 Z " fill="#24307B" transform="translate(418,206)"/>
<path d="M0 0 C2.9308636 2.05952578 3.83773934 3.4258469 4.8125 6.875 C8.18106568 15.73964652 18.96770035 19.20307046 26.96044922 23.02441406 C29.10301933 24.04927762 31.24436206 25.07568794 33.37890625 26.1171875 C34.02545166 26.43026855 34.67199707 26.74334961 35.33813477 27.06591797 C37 28 37 28 39 30 C39.62118682 33.99334387 39.29566536 35.5657415 37 38.9375 C33.61098156 41.26745018 32.21347962 41.17312316 28.25634766 40.55004883 C24.14688313 39.54825013 20.46497826 37.74442139 16.6875 35.875 C15.43900269 35.26603882 15.43900269 35.26603882 14.1652832 34.64477539 C3.74586586 29.48525268 -5.60821163 24.78357675 -11 14 C-11.48547716 9.43173948 -11.82829866 5.39154176 -9.4375 1.375 C-6.03897329 -0.54211763 -3.84031465 -0.54861638 0 0 Z " fill="#3D4EC4" transform="translate(11,204)"/>
<path d="M0 0 C2.375 1.4375 2.375 1.4375 4 4 C4.32338916 7.03046934 4.23343996 9.96528054 4 13 C4.90492188 12.93039063 4.90492188 12.93039063 5.828125 12.859375 C12.3161918 12.56636553 12.3161918 12.56636553 15.5625 14.625 C17.43910956 17.72548536 17.59452734 19.43283597 17 23 C15.1329009 25.30275556 13.64352259 26.67823871 11 28 C9.00039988 28.039992 6.99952758 28.04346799 5 28 C5.04125 28.9075 5.0825 29.815 5.125 30.75 C5.00279905 33.92722465 4.75602869 35.41216824 3 38 C-0.49124017 40.32749345 -1.89222251 40.50299316 -6 40 C-8.30275556 38.1329009 -9.67823871 36.64352259 -11 34 C-11.039992 32.00039988 -11.04346799 29.99952758 -11 28 C-11.9075 28.04125 -12.815 28.0825 -13.75 28.125 C-16.92722465 28.00279905 -18.41216824 27.75602869 -21 26 C-23.32749345 22.50875983 -23.50299316 21.10777749 -23 17 C-21.5625 14.625 -21.5625 14.625 -19 13 C-15.96953066 12.67661084 -13.03471946 12.76656004 -10 13 C-10.04640625 12.39671875 -10.0928125 11.7934375 -10.140625 11.171875 C-10.43363447 4.6838082 -10.43363447 4.6838082 -8.375 1.4375 C-5.27451464 -0.43910956 -3.56716403 -0.59452734 0 0 Z " fill="#303C96" transform="translate(213,170)"/>
<path d="M0 0 C2.375 1.4375 2.375 1.4375 4 4 C4.32338916 7.03046934 4.23343996 9.96528054 4 13 C4.90492188 12.93039063 4.90492188 12.93039063 5.828125 12.859375 C12.3161918 12.56636553 12.3161918 12.56636553 15.5625 14.625 C17.43910956 17.72548536 17.59452734 19.43283597 17 23 C15.1329009 25.30275556 13.64352259 26.67823871 11 28 C9.00039988 28.039992 6.99952758 28.04346799 5 28 C5.04125 28.9075 5.0825 29.815 5.125 30.75 C5.00279905 33.92722465 4.75602869 35.41216824 3 38 C-0.49124017 40.32749345 -1.89222251 40.50299316 -6 40 C-8.30275556 38.1329009 -9.67823871 36.64352259 -11 34 C-11.039992 32.00039988 -11.04346799 29.99952758 -11 28 C-11.9075 28.04125 -12.815 28.0825 -13.75 28.125 C-16.92722465 28.00279905 -18.41216824 27.75602869 -21 26 C-23.32749345 22.50875983 -23.50299316 21.10777749 -23 17 C-21.5625 14.625 -21.5625 14.625 -19 13 C-15.96953066 12.67661084 -13.03471946 12.76656004 -10 13 C-10.04640625 12.39671875 -10.0928125 11.7934375 -10.140625 11.171875 C-10.43363447 4.6838082 -10.43363447 4.6838082 -8.375 1.4375 C-5.27451464 -0.43910956 -3.56716403 -0.59452734 0 0 Z " fill="#5B69CE" transform="translate(193,110)"/>
<path d="M0 0 C4.31354075 1.29533842 7.92830342 2.93185752 11.75 5.3125 C12.69359375 5.88613281 13.6371875 6.45976562 14.609375 7.05078125 C17.25846786 9.21074422 18.04166562 10.76283561 19 14 C12.472216 18.47985176 5.60898828 21.7367032 -2 24 C-2.66 23.67 -3.32 23.34 -4 23 C-3.79503906 21.92621094 -3.59007812 20.85242188 -3.37890625 19.74609375 C-3.10668868 18.3099114 -2.83455789 16.8737126 -2.5625 15.4375 C-2.36043945 14.38079102 -2.36043945 14.38079102 -2.15429688 13.30273438 C-1.31861358 8.87972769 -0.60374755 4.46069791 0 0 Z " fill="#64AECE" transform="translate(478,241)"/>
</svg>
